<svg width="16" height="16" viewBox="0 0 16 16" fill="none" xmlns="http://www.w3.org/2000/svg">
<g clip-path="url(#clip0_1_12)">
<path d="M12.25 15.9988H3.75C1.68225 15.9988 0 14.3166 0 12.2488V6.99037C0 5.82815 0.551719 4.7135 1.47581 4.00865L5.72581 0.767121C7.06484 -0.254161 8.93516 -0.254161 10.2742 0.767121L11.625 1.7965V0.998839C11.658 0.169589 12.8423 0.170214 12.875 0.998839V3.05856C12.875 3.29615 12.7403 3.51318 12.5273 3.61865C12.3144 3.72409 12.0601 3.69965 11.8712 3.55568L9.51631 1.76121C8.62344 1.08021 7.3765 1.08021 6.48384 1.76106L2.23384 5.00259C1.61781 5.47243 1.25 6.21553 1.25 6.99037V12.2488C1.25 13.6273 2.3715 14.7488 3.75 14.7488H12.25C13.6285 14.7488 14.75 13.6273 14.75 12.2488V6.99037C14.75 6.20603 14.3863 5.4604 13.7772 4.99578C13.5028 4.78643 13.45 4.39425 13.6593 4.11981C13.8687 3.84534 14.2609 3.79256 14.5353 4.0019C15.4524 4.7014 16 5.81859 16 6.99037V12.2488C16 14.3166 14.3177 15.9988 12.25 15.9988ZM6.75 7.21759C6.31853 7.21759 5.96875 7.56737 5.96875 7.99884C6.01003 9.0354 7.49034 9.03462 7.53125 7.99884C7.53125 7.56734 7.18147 7.21759 6.75 7.21759ZM10.0312 7.99881C9.98997 9.03537 8.50966 9.03459 8.46875 7.99881C8.51003 6.96225 9.99034 6.96306 10.0312 7.99881ZM7.53125 10.4988C7.48997 11.5354 6.00966 11.5346 5.96875 10.4988C6.01003 9.46224 7.49034 9.46306 7.53125 10.4988ZM10.0312 10.4988C9.98997 11.5354 8.50966 11.5346 8.46875 10.4988C8.51003 9.46224 9.99034 9.46306 10.0312 10.4988Z" fill="white"/>
</g>
<defs>
<clipPath id="clip0_1_12">
<rect width="16" height="16" fill="white"/>
</clipPath>
</defs>
</svg>
