<svg width="16" height="16" viewBox="0 0 16 16" fill="none" xmlns="http://www.w3.org/2000/svg">
<g clip-path="url(#clip0_1_115)">
<path d="M8 4.375C6.00116 4.375 4.375 6.00119 4.375 8C4.375 9.99881 6.00116 11.625 8 11.625C8.37334 11.625 8.74172 11.5683 9.09488 11.4566C9.42397 11.3524 9.60628 11.0012 9.50212 10.6721C9.398 10.343 9.04669 10.1607 8.71766 10.2648C8.48666 10.3379 8.24522 10.375 8 10.375C6.69044 10.375 5.625 9.30959 5.625 8C5.625 6.69041 6.69044 5.625 8 5.625C9.30956 5.625 10.375 6.69041 10.375 8C10.375 8.22759 10.343 8.45247 10.2798 8.66831C10.1829 8.99962 10.373 9.34672 10.7043 9.44363C11.0357 9.54053 11.3827 9.3505 11.4796 9.01919C11.5761 8.68931 11.625 8.34637 11.625 8C11.625 6.00119 9.99884 4.375 8 4.375Z" fill="white"/>
<path d="M14.125 5.81253H13.8103C13.7275 5.81253 13.6524 5.76038 13.6199 5.68169L13.6143 5.66819C13.5807 5.58713 13.5968 5.49691 13.6553 5.43834L13.8779 5.21578C14.609 4.48472 14.609 3.29519 13.8779 2.56413L13.436 2.12219C13.0818 1.76803 12.6109 1.573 12.1101 1.573C11.6092 1.573 11.1384 1.76803 10.7843 2.12219L10.5618 2.34472C10.5032 2.40331 10.4128 2.41937 10.3322 2.38584L10.3204 2.38097C10.2397 2.34763 10.1875 2.27259 10.1875 2.18981V1.875C10.1875 0.841125 9.34641 0 8.31253 0H7.68753C6.65366 0 5.81253 0.841125 5.81253 1.875V2.18981C5.81253 2.27259 5.76041 2.34763 5.68038 2.38066L5.66816 2.38572C5.58719 2.41941 5.49687 2.40331 5.43834 2.34475L5.21578 2.12219C4.86166 1.76803 4.39078 1.573 3.88994 1.573C3.38909 1.573 2.91825 1.76803 2.56409 2.12219L2.12216 2.56406C1.39109 3.29516 1.39109 4.48466 2.12219 5.21575L2.34472 5.43828C2.40328 5.49687 2.41934 5.58709 2.38475 5.67047L2.38097 5.67959C2.34766 5.76031 2.27256 5.81247 2.18978 5.81247H1.875C0.841125 5.81247 0 6.65359 0 7.68747V8.31247C0 9.34634 0.841125 10.1875 1.875 10.1875H2.18975C2.27256 10.1875 2.34759 10.2396 2.38013 10.3183L2.38569 10.3318C2.41934 10.4129 2.40325 10.5031 2.34469 10.5617L2.12216 10.7842C1.768 11.1384 1.57297 11.6092 1.57297 12.1101C1.57297 12.6109 1.768 13.0817 2.12212 13.4359L2.56406 13.8778C2.91822 14.232 3.38909 14.427 3.88991 14.427C4.39078 14.427 4.86163 14.232 5.21575 13.8778L5.43828 13.6553C5.49681 13.5967 5.58716 13.5806 5.66787 13.6142L5.67966 13.619C5.76037 13.6524 5.8125 13.7274 5.8125 13.8102V14.125C5.8125 15.1589 6.65363 16 7.6875 16H8.3125C9.34637 16 10.1875 15.1589 10.1875 14.125V13.8102C10.1875 13.7274 10.2396 13.6524 10.3197 13.6193L10.3319 13.6143C10.4129 13.5807 10.5032 13.5967 10.5617 13.6552L10.7843 13.8778C11.1384 14.232 11.6093 14.427 12.1101 14.427C12.6109 14.427 13.0818 14.232 13.4359 13.8778L13.8779 13.4359C14.232 13.0817 14.427 12.6109 14.427 12.1101C14.427 11.6092 14.232 11.1384 13.8779 10.7843L13.6553 10.5617C13.5967 10.5031 13.5807 10.4129 13.6143 10.3318L13.619 10.3204C13.6524 10.2397 13.7274 10.1875 13.8102 10.1875H14.125C15.1589 10.1875 16 9.34641 16 8.31253V7.68753C16 6.65366 15.1589 5.81253 14.125 5.81253ZM14.75 8.3125C14.75 8.65713 14.4696 8.9375 14.125 8.9375H13.8102C13.2194 8.9375 12.6909 9.293 12.4637 9.84322L12.4596 9.85303C12.2316 10.403 12.3539 11.028 12.7714 11.4456L12.994 11.6681C13.112 11.7862 13.177 11.9431 13.177 12.1101C13.177 12.277 13.112 12.4339 12.9939 12.552L12.552 12.9939C12.4339 13.112 12.277 13.177 12.1101 13.177C11.9431 13.177 11.7862 13.112 11.6681 12.9939L11.4455 12.7713C11.0278 12.3537 10.4024 12.2315 9.85206 12.46L9.84325 12.4637C9.29303 12.6909 8.9375 13.2194 8.9375 13.8102V14.125C8.9375 14.4696 8.65713 14.75 8.3125 14.75H7.6875C7.34288 14.75 7.0625 14.4696 7.0625 14.125V13.8102C7.0625 13.2194 6.70697 12.6909 6.15609 12.4634L6.14766 12.4599C5.96359 12.3834 5.77119 12.3463 5.58087 12.3463C5.20241 12.3463 4.83241 12.4934 4.55444 12.7714L4.33187 12.994C4.21381 13.112 4.05691 13.177 3.88994 13.177C3.723 13.177 3.56603 13.112 3.448 12.9939L3.00606 12.552C2.888 12.4339 2.823 12.277 2.823 12.1101C2.823 11.9431 2.888 11.7862 3.00606 11.6681L3.22863 11.4456C3.64616 11.028 3.76847 10.403 3.54037 9.85303L3.53631 9.84322C3.30906 9.293 2.78053 8.9375 2.18978 8.9375H1.875C1.53038 8.9375 1.25 8.65713 1.25 8.3125V7.6875C1.25 7.34288 1.53038 7.0625 1.875 7.0625H2.18978C2.78056 7.0625 3.30909 6.707 3.53716 6.15478L3.54006 6.14769C3.76856 5.59756 3.64631 4.97219 3.22859 4.55444L3.00606 4.33191C2.76234 4.08819 2.76234 3.69169 3.00606 3.448L3.44797 3.00606C3.56606 2.88803 3.723 2.823 3.88994 2.823C4.05691 2.823 4.21384 2.888 4.33187 3.00606L4.55447 3.22866C4.97225 3.64634 5.59766 3.76859 6.14794 3.53997L6.15675 3.53631C6.70697 3.30913 7.0625 2.78059 7.0625 2.18981V1.875C7.0625 1.53038 7.34288 1.25 7.6875 1.25H8.3125C8.65713 1.25 8.9375 1.53038 8.9375 1.875V2.18981C8.9375 2.78059 9.29303 3.30912 9.84391 3.53656L9.85234 3.54006C10.4024 3.7685 11.0278 3.64628 11.4456 3.22859L11.6681 3.006C11.7862 2.88797 11.9431 2.82297 12.1101 2.82297C12.277 2.82297 12.434 2.888 12.552 3.00603L12.9939 3.44797C13.2377 3.69166 13.2377 4.08816 12.994 4.33184L12.7714 4.55444C12.3537 4.97219 12.2314 5.59753 12.459 6.14537L12.4637 6.15678C12.6909 6.707 13.2195 7.0625 13.8102 7.0625H14.125C14.4696 7.0625 14.75 7.34288 14.75 7.6875V8.3125Z" fill="white"/>
</g>
<defs>
<clipPath id="clip0_1_115">
<rect width="16" height="16" fill="white"/>
</clipPath>
</defs>
</svg>
