<svg width="16" height="16" viewBox="0 0 16 16" fill="none" xmlns="http://www.w3.org/2000/svg">
<g clip-path="url(#clip0_1_32)">
<path d="M13.1833 8.47839H12.4408C12.9069 8.17981 13.3237 7.81494 13.675 7.38989C14.5564 6.3241 15.0221 5.02551 15.0221 3.63489V2.37573C15.0221 2.11646 14.8119 1.90625 14.5527 1.90625H13.2936C12.0834 1.90625 10.9274 2.27136 9.95715 2.93762C9.0365 2.27026 7.91833 1.90625 6.76978 1.90625H5.97986C5.7207 1.90625 5.5105 2.11646 5.5105 2.37573V3.16553C5.5105 3.60718 5.56323 4.04016 5.66443 4.45752C5.59778 4.51294 5.53357 4.57117 5.47229 4.63257L0.824951 9.27979C0.292969 9.81189 0 10.5192 0 11.2715C0 12.0238 0.292969 12.7312 0.824951 13.2632C1.35693 13.7952 2.06433 14.0881 2.81665 14.0881C3.50562 14.0881 4.15649 13.8417 4.66992 13.3917C5.1687 13.8391 5.82739 14.1117 6.54858 14.1117H13.1833C14.7365 14.1117 16 12.8481 16 11.295C16 9.74194 14.7365 8.47839 13.1833 8.47839ZM14.0833 2.84509V3.63489C14.0833 4.80457 13.6919 5.89612 12.9515 6.79163C12.0653 7.86353 10.6666 8.47827 9.11389 8.47839L11.1292 6.46313C11.3125 6.27991 11.3125 5.98267 11.1292 5.79932C10.9458 5.61597 10.6486 5.61597 10.4652 5.79932L8.3302 7.93433C8.29883 6.76453 8.68164 5.61792 9.43311 4.68848C10.3801 3.51697 11.7872 2.84509 13.2936 2.84509H14.0833ZM6.44934 2.84509H6.76978C7.63574 2.84509 8.48035 3.09509 9.19934 3.55664C9.02429 3.72571 8.85828 3.90613 8.70288 4.09827C8.6709 4.13782 8.63965 4.17773 8.60889 4.2179L8.31238 3.92151C8.12915 3.73816 7.83191 3.73816 7.64856 3.92151C7.46521 4.10486 7.46521 4.4021 7.64856 4.58545L8.08765 5.02454C7.88794 5.39648 7.72998 5.7865 7.61511 6.18835C6.86694 5.36646 6.44934 4.29993 6.44934 3.16565V2.84509ZM6.00134 5.43127C6.32507 6.13855 6.80225 6.77417 7.41113 7.29541C7.37744 7.6864 7.38293 8.0824 7.42859 8.47839H6.54858C6.18823 8.47839 5.84363 8.54651 5.52661 8.67041L4.14441 7.28809L6.00134 5.43127ZM1.48889 12.5992C1.13416 12.2446 0.938843 11.7731 0.938843 11.2715C0.938843 10.7699 1.13416 10.2983 1.48889 9.94373L3.48059 7.95203L4.70007 9.17163C4.10718 9.68835 3.73193 10.4487 3.73193 11.295C3.73193 11.7888 3.85974 12.2531 4.08386 12.657C3.73694 12.975 3.29016 13.1493 2.81665 13.1493C2.31506 13.1493 1.84351 12.954 1.48889 12.5992ZM4.67078 11.295C4.67078 10.2596 5.51318 9.41736 6.54858 9.41736H9.36523V13.1729H6.54858C5.51318 13.1729 4.67078 12.3304 4.67078 11.295ZM13.1833 13.1729H10.3041V9.41736H13.1833C14.2188 9.41736 15.0612 10.2596 15.0612 11.295C15.0612 12.3304 14.2188 13.1729 13.1833 13.1729Z" fill="white"/>
</g>
<defs>
<clipPath id="clip0_1_32">
<rect width="16" height="16" fill="white"/>
</clipPath>
</defs>
</svg>
