<svg width="14" height="16" viewBox="0 0 14 16" fill="none" xmlns="http://www.w3.org/2000/svg">
<path d="M6.99914 8.86667C6.91247 8.86667 6.82581 8.84667 6.74581 8.8L0.85912 5.39333C0.625787 5.25333 0.53912 4.94667 0.67912 4.70667C0.81912 4.46667 1.12579 4.38667 1.36579 4.52667L6.99914 7.78667L12.5991 4.54667C12.8391 4.40667 13.1458 4.49333 13.2858 4.72667C13.4258 4.96667 13.3391 5.27333 13.1058 5.41333L7.25914 8.8C7.17247 8.84 7.08581 8.86667 6.99914 8.86667Z" fill="white"/>
<path d="M6.99915 14.9067C6.72581 14.9067 6.49915 14.68 6.49915 14.4067V8.36C6.49915 8.08667 6.72581 7.86 6.99915 7.86C7.27248 7.86 7.49915 8.08667 7.49915 8.36V14.4067C7.49915 14.68 7.27248 14.9067 6.99915 14.9067Z" fill="white"/>
<path d="M6.99916 15.1667C6.41249 15.1667 5.83249 15.04 5.37247 14.7867L1.81247 12.8067C0.845802 12.2733 0.0924683 10.9867 0.0924683 9.88V6.11333C0.0924683 5.00666 0.845802 3.72666 1.81247 3.18666L5.37247 1.21333C6.28582 0.706662 7.71249 0.706662 8.62582 1.21333L12.1858 3.19333C13.1525 3.72666 13.9058 5.01333 13.9058 6.12V9.88666C13.9058 10.9933 13.1525 12.2733 12.1858 12.8133L8.62582 14.7867C8.16582 15.04 7.58582 15.1667 6.99916 15.1667ZM6.99916 1.83333C6.57916 1.83333 6.16582 1.92 5.85916 2.08666L2.29913 4.06666C1.65913 4.41999 1.09247 5.37999 1.09247 6.11333V9.88C1.09247 10.6133 1.65913 11.5733 2.29913 11.9333L5.85916 13.9133C6.46582 14.2533 7.53249 14.2533 8.13916 13.9133L11.6992 11.9333C12.3392 11.5733 12.9058 10.62 12.9058 9.88V6.11333C12.9058 5.37999 12.3392 4.42 11.6992 4.06L8.13916 2.07999C7.83249 1.91999 7.41916 1.83333 6.99916 1.83333Z" fill="white"/>
</svg>
