<svg width="14" height="16" viewBox="0 0 14 16" fill="none" xmlns="http://www.w3.org/2000/svg">
<path d="M10.75 16H3.25C1.52688 16 0.125 14.5981 0.125 12.875V3.125C0.125 1.40188 1.52688 0 3.25 0H9.71447C10.5492 0 11.3339 0.325063 11.9242 0.915313L12.9597 1.95084C13.55 2.54109 13.875 3.32584 13.875 4.16056V4.375C13.875 4.72019 13.5952 5 13.25 5H10.75C9.71616 5 8.87503 4.15887 8.87503 3.125V1.25H3.25C2.21613 1.25 1.375 2.09113 1.375 3.125V12.875C1.375 13.9089 2.21613 14.75 3.25 14.75H10.75C11.7839 14.75 12.625 13.9089 12.625 12.875V6.875C12.625 6.52981 12.9048 6.25 13.25 6.25C13.5952 6.25 13.875 6.52981 13.875 6.875V12.875C13.875 14.5981 12.4731 16 10.75 16ZM10.125 1.29481V3.125C10.125 3.46962 10.4054 3.75 10.75 3.75H12.5802C12.5037 3.40594 12.3311 3.09 12.0758 2.83472L11.0403 1.79919C10.785 1.54391 10.4691 1.37128 10.125 1.29481Z" fill="white"/>
<path d="M10.75 11H10.125V6.875C10.125 6.52981 9.84519 6.25 9.5 6.25C9.15481 6.25 8.875 6.52981 8.875 6.875V11H7.625V8.125C7.625 7.77981 7.34519 7.5 7 7.5C6.65481 7.5 6.375 7.77981 6.375 8.125V11H5.125V9.375C5.125 9.02981 4.84519 8.75 4.5 8.75C4.15481 8.75 3.875 9.02981 3.875 9.375V11H3.25C2.90481 11 2.625 11.2798 2.625 11.625C2.625 11.9702 2.90481 12.25 3.25 12.25H10.75C11.0952 12.25 11.375 11.9702 11.375 11.625C11.375 11.2798 11.0952 11 10.75 11Z" fill="white"/>
<path d="M5.75 5H3.25C2.90481 5 2.625 4.72019 2.625 4.375C2.625 4.02981 2.90481 3.75 3.25 3.75H5.75C6.09519 3.75 6.375 4.02981 6.375 4.375C6.375 4.72019 6.09519 5 5.75 5Z" fill="white"/>
</svg>
