<svg width="16" height="16" viewBox="0 0 16 16" fill="none" xmlns="http://www.w3.org/2000/svg">
<path d="M4 15.1667H2.66667C2.35736 15.1663 2.06081 15.0433 1.8421 14.8246C1.62338 14.6059 1.50035 14.3093 1.5 14V11.3333C1.50035 11.024 1.62338 10.7275 1.8421 10.5088C2.06081 10.29 2.35736 10.167 2.66667 10.1667H4C4.30931 10.167 4.60585 10.29 4.82457 10.5088C5.04328 10.7275 5.16631 11.024 5.16667 11.3333V14C5.16631 14.3093 5.04328 14.6059 4.82457 14.8246C4.60585 15.0433 4.30931 15.1663 4 15.1667ZM2.66667 11.1667C2.62246 11.1667 2.58007 11.1842 2.54882 11.2155C2.51756 11.2467 2.5 11.2891 2.5 11.3333V14C2.5 14.0442 2.51756 14.0866 2.54882 14.1178C2.58007 14.1491 2.62246 14.1667 2.66667 14.1667H4C4.0442 14.1667 4.0866 14.1491 4.11785 14.1178C4.14911 14.0866 4.16667 14.0442 4.16667 14V11.3333C4.16667 11.2891 4.14911 11.2467 4.11785 11.2155C4.0866 11.1842 4.0442 11.1667 4 11.1667H2.66667Z" fill="white"/>
<path d="M8.66669 15.1667H7.33335C7.02404 15.1663 6.7275 15.0433 6.50879 14.8246C6.29007 14.6059 6.16704 14.3093 6.16669 14V8.66667C6.16704 8.35736 6.29007 8.06081 6.50879 7.8421C6.7275 7.62338 7.02404 7.50035 7.33335 7.5H8.66669C8.976 7.50035 9.27254 7.62338 9.49126 7.8421C9.70997 8.06081 9.833 8.35736 9.83335 8.66667V14C9.833 14.3093 9.70997 14.6059 9.49126 14.8246C9.27254 15.0433 8.976 15.1663 8.66669 15.1667ZM7.33335 8.5C7.28915 8.5 7.24676 8.51756 7.2155 8.54882C7.18425 8.58007 7.16669 8.62246 7.16669 8.66667V14C7.16669 14.0442 7.18425 14.0866 7.2155 14.1179C7.24676 14.1491 7.28915 14.1667 7.33335 14.1667H8.66669C8.71089 14.1667 8.75328 14.1491 8.78454 14.1179C8.81579 14.0866 8.83335 14.0442 8.83335 14V8.66667C8.83335 8.62246 8.81579 8.58007 8.78454 8.54882C8.75328 8.51756 8.71089 8.5 8.66669 8.5H7.33335Z" fill="white"/>
<path d="M13.3333 15.1667H12C11.6907 15.1663 11.3941 15.0433 11.1754 14.8246C10.9567 14.6059 10.8337 14.3093 10.8333 14V7.33334C10.8337 7.02403 10.9567 6.72749 11.1754 6.50877C11.3941 6.29005 11.6907 6.16702 12 6.16667H13.3333C13.6426 6.16702 13.9392 6.29005 14.1579 6.50877C14.3766 6.72749 14.4996 7.02403 14.5 7.33334V14C14.4996 14.3093 14.3766 14.6059 14.1579 14.8246C13.9392 15.0433 13.6426 15.1663 13.3333 15.1667ZM12 7.16667C11.9558 7.16667 11.9134 7.18423 11.8821 7.21549C11.8509 7.24674 11.8333 7.28914 11.8333 7.33334V14C11.8333 14.0442 11.8509 14.0866 11.8821 14.1179C11.9134 14.1491 11.9558 14.1667 12 14.1667H13.3333C13.3775 14.1667 13.4199 14.1491 13.4512 14.1179C13.4824 14.0866 13.5 14.0442 13.5 14V7.33334C13.5 7.28914 13.4824 7.24674 13.4512 7.21549C13.4199 7.18423 13.3775 7.16667 13.3333 7.16667H12Z" fill="white"/>
<path d="M3.33332 7.16666C3.21829 7.16647 3.10685 7.12662 3.01778 7.05383C2.9287 6.98104 2.86746 6.87976 2.84435 6.76708C2.82125 6.65439 2.83771 6.53719 2.89096 6.43522C2.9442 6.33326 3.03098 6.25277 3.13665 6.20733L7.80332 4.20733L13.7967 1.54066C13.857 1.51193 13.9225 1.49558 13.9893 1.49256C14.056 1.48954 14.1228 1.49993 14.1854 1.5231C14.2481 1.54628 14.3056 1.58177 14.3543 1.6275C14.4031 1.67322 14.4422 1.72824 14.4693 1.78931C14.4965 1.85039 14.5112 1.91629 14.5124 1.98312C14.5137 2.04995 14.5016 2.11636 14.4768 2.17843C14.452 2.24051 14.415 2.29699 14.3681 2.34454C14.3211 2.3921 14.2651 2.42977 14.2033 2.45533L8.20332 5.122L3.52999 7.122C3.46815 7.15009 3.40123 7.16529 3.33332 7.16666Z" fill="white"/>
<path d="M13.3333 4.5C13.2796 4.50022 13.2262 4.49143 13.1753 4.474C13.1131 4.45329 13.0555 4.4205 13.0059 4.37752C12.9563 4.33454 12.9157 4.2822 12.8863 4.2235C12.857 4.16481 12.8395 4.1009 12.8349 4.03544C12.8302 3.96998 12.8385 3.90425 12.8593 3.842L13.3673 2.316L11.842 1.80733C11.7163 1.76543 11.6124 1.6753 11.5531 1.55678C11.4939 1.43826 11.4841 1.30105 11.526 1.17533C11.5679 1.04962 11.658 0.945705 11.7766 0.886443C11.8951 0.827182 12.0323 0.817431 12.158 0.859335L14.158 1.526C14.2203 1.54672 14.2779 1.5795 14.3274 1.62248C14.377 1.66547 14.4177 1.7178 14.447 1.7765C14.4764 1.8352 14.4939 1.8991 14.4985 1.96456C14.5031 2.03002 14.4948 2.09576 14.474 2.158L13.8073 4.158C13.7743 4.25758 13.7107 4.34421 13.6256 4.4056C13.5405 4.46699 13.4383 4.50002 13.3333 4.5Z" fill="white"/>
</svg>
