<svg width="16" height="16" viewBox="0 0 16 16" fill="none" xmlns="http://www.w3.org/2000/svg">
<path d="M3.73242 6.26538C4.62207 6.26538 5.3457 5.5415 5.3457 4.65186C5.3457 3.76221 4.62207 3.03857 3.73242 3.03857C2.84277 3.03857 2.11865 3.76221 2.11865 4.65186C2.11865 5.5415 2.84277 6.26538 3.73242 6.26538ZM3.73242 4.03857C4.0708 4.03857 4.3457 4.31372 4.3457 4.65186C4.3457 4.99023 4.0708 5.26538 3.73242 5.26538C3.39404 5.26538 3.11865 4.99023 3.11865 4.65186C3.11865 4.31372 3.39404 4.03857 3.73242 4.03857Z" fill="white"/>
<path d="M2.22363 10.9854H2.99316C3.26953 10.9854 3.49316 10.7615 3.49316 10.4854C3.49316 10.3017 3.3894 10.148 3.24185 10.061C3.16754 10.0173 3.08572 9.98535 2.99316 9.98535H2.22363C2.1001 9.98535 2 9.88525 2 9.76196C2 9.30225 2.18018 8.86865 2.50732 8.54102C2.83447 8.21362 3.27051 8.03345 3.73438 8.03345C3.95496 8.03345 4.16751 8.07901 4.35681 8.15765C4.37244 8.16415 4.3905 8.1666 4.40576 8.17358C4.65723 8.28906 4.95361 8.17749 5.06836 7.92651C5.18311 7.67529 5.07275 7.37866 4.82178 7.26392C4.4917 7.11328 4.11572 7.03345 3.73438 7.03345C3.00342 7.03345 2.31641 7.31763 1.7998 7.83423C1.28418 8.35059 1 9.0354 1 9.76196C1 10.4365 1.54883 10.9854 2.22363 10.9854Z" fill="white"/>
<path d="M12.2676 6.26538C13.1572 6.26538 13.8813 5.5415 13.8813 4.65186C13.8813 3.76221 13.1572 3.03857 12.2676 3.03857C11.3779 3.03857 10.6543 3.76221 10.6543 4.65186C10.6543 5.5415 11.3779 6.26538 12.2676 6.26538ZM12.2676 4.03857C12.606 4.03857 12.8813 4.31372 12.8813 4.65186C12.8813 4.99023 12.606 5.26538 12.2676 5.26538C11.9292 5.26538 11.6543 4.99023 11.6543 4.65186C11.6543 4.31372 11.9292 4.03857 12.2676 4.03857Z" fill="white"/>
<path d="M11.1782 7.26392C10.9272 7.37866 10.8169 7.67529 10.9316 7.92651C11.0464 8.17749 11.3413 8.28784 11.5942 8.17358C11.6095 8.1666 11.6275 8.16415 11.6432 8.15765C11.8325 8.07901 12.045 8.03345 12.2656 8.03345C12.7295 8.03345 13.1655 8.21362 13.4922 8.54077C13.8198 8.86865 14 9.30225 14 9.76196C14 9.88525 13.8999 9.98535 13.7763 9.98535H13.0068C12.9142 9.98535 12.8324 10.0173 12.7581 10.0611C12.6106 10.148 12.5068 10.3017 12.5068 10.4854C12.5068 10.7615 12.7304 10.9854 13.0068 10.9854H13.7763C14.4511 10.9854 15 10.4365 15 9.76196C15 9.0354 14.7158 8.35059 14.1997 7.83398C13.6836 7.31763 12.9966 7.03345 12.2656 7.03345C11.8842 7.03345 11.5083 7.11328 11.1782 7.26392Z" fill="white"/>
<path d="M8 7.17725C9.04736 7.17725 9.89941 6.3252 9.89941 5.27808C9.89941 4.23071 9.04736 3.37866 8 3.37866C6.95264 3.37866 6.10059 4.23071 6.10059 5.27808C6.10059 6.3252 6.95264 7.17725 8 7.17725ZM8 4.37866C8.49609 4.37866 8.89941 4.78223 8.89941 5.27808C8.89941 5.77393 8.49609 6.17725 8 6.17725C7.50391 6.17725 7.10059 5.77393 7.10059 5.27808C7.10059 4.78223 7.50391 4.37866 8 4.37866Z" fill="white"/>
<path d="M6.10352 12.9614H9.89648C10.6733 12.9614 11.3052 12.3296 11.3052 11.5527C11.3052 9.73022 9.82227 8.24731 8 8.24731C6.17773 8.24731 4.69482 9.73022 4.69482 11.5527C4.69482 12.3296 5.32666 12.9614 6.10352 12.9614ZM8 9.24731C9.271 9.24731 10.3052 10.2815 10.3052 11.5527C10.3052 11.7781 10.1221 11.9614 9.89648 11.9614H6.10352C5.87793 11.9614 5.69482 11.7781 5.69482 11.5527C5.69482 10.2815 6.729 9.24731 8 9.24731Z" fill="white"/>
</svg>
