<svg width="16" height="16" viewBox="0 0 16 16" fill="none" xmlns="http://www.w3.org/2000/svg">
<path d="M8 6.87256C9.61914 6.87256 10.9363 5.55542 10.9363 3.93628C10.9363 2.31714 9.61914 1 8 1C6.38086 1 5.06372 2.31714 5.06372 3.93628C5.06372 5.55542 6.38086 6.87256 8 6.87256ZM8 2C9.06763 2 9.93628 2.86865 9.93628 3.93628C9.93628 5.00391 9.06763 5.87256 8 5.87256C6.93237 5.87256 6.06372 5.00391 6.06372 3.93628C6.06372 2.86865 6.93237 2 8 2Z" fill="white"/>
<path d="M4.69824 15H11.3018C12.45 15 13.3843 14.0657 13.3843 12.9175C13.3843 9.94849 10.969 7.5332 8 7.5332C5.03101 7.5332 2.61572 9.94849 2.61572 12.9175C2.61572 14.0657 3.55005 15 4.69824 15ZM8 8.5332C10.4175 8.5332 12.3843 10.5 12.3843 12.9175C12.3843 13.5144 11.8987 14 11.3018 14H4.69824C4.10132 14 3.61572 13.5144 3.61572 12.9175C3.61572 10.5 5.58252 8.5332 8 8.5332Z" fill="white"/>
</svg>
