<svg width="16" height="16" viewBox="0 0 16 16" fill="none" xmlns="http://www.w3.org/2000/svg">
<path d="M11.32 2.31111H9.89776V1.83555C9.89776 1.71086 9.87313 1.5874 9.82528 1.47225C9.77743 1.35711 9.7073 1.25255 9.61892 1.16458C9.53054 1.07662 9.42566 1.00698 9.31029 0.959669C9.19492 0.912357 9.07134 0.888303 8.94665 0.888888H7.05332C6.80225 0.888888 6.56146 0.988626 6.38392 1.16616C6.20639 1.34369 6.10665 1.58448 6.10665 1.83555V2.31111H4.68443C4.05575 2.31111 3.45276 2.56055 3.0078 3.00467C2.56284 3.4488 2.31227 4.05132 2.3111 4.68V12.7422C2.31227 13.3701 2.56223 13.972 3.00623 14.416C3.45022 14.86 4.05208 15.1099 4.67999 15.1111H11.32C11.9479 15.1099 12.5497 14.86 12.9937 14.416C13.4377 13.972 13.6877 13.3701 13.6889 12.7422V4.68C13.6877 4.05209 13.4377 3.45024 12.9937 3.00624C12.5497 2.56224 11.9479 2.31229 11.32 2.31111ZM7.05332 1.83555H8.9511V3.73333C8.9511 3.85946 8.90099 3.98042 8.81181 4.0696C8.72263 4.15879 8.60167 4.20889 8.47554 4.20889H7.52443C7.39908 4.20772 7.27926 4.1571 7.19103 4.06804C7.10281 3.97898 7.05331 3.85869 7.05332 3.73333V1.83555ZM12.7422 12.7378C12.7422 12.9245 12.7054 13.1095 12.6339 13.282C12.5625 13.4546 12.4577 13.6114 12.3256 13.7434C12.1936 13.8755 12.0368 13.9803 11.8642 14.0517C11.6917 14.1232 11.5068 14.16 11.32 14.16H4.67999C4.30279 14.16 3.94104 14.0102 3.67432 13.7434C3.4076 13.4767 3.25776 13.115 3.25776 12.7378V4.68C3.25776 4.3028 3.4076 3.94106 3.67432 3.67434C3.94104 3.40762 4.30279 3.25778 4.67999 3.25778H6.10221V3.73333C6.10221 4.11053 6.25205 4.47228 6.51877 4.739C6.78549 5.00571 7.14723 5.15556 7.52443 5.15556H8.4711C8.84829 5.15556 9.21004 5.00571 9.47676 4.739C9.74348 4.47228 9.89332 4.11053 9.89332 3.73333V3.25778H11.3155C11.6927 3.25778 12.0545 3.40762 12.3212 3.67434C12.5879 3.94106 12.7378 4.3028 12.7378 4.68L12.7422 12.7378Z" fill="white"/>
<path d="M7.99997 10.3689C8.42191 10.3689 8.83436 10.2438 9.18519 10.0094C9.53601 9.77494 9.80945 9.44176 9.97091 9.05195C10.1324 8.66213 10.1746 8.23319 10.0923 7.81936C10.01 7.40554 9.80682 7.02541 9.50847 6.72706C9.21011 6.42871 8.82999 6.22553 8.41616 6.14321C8.00234 6.0609 7.5734 6.10315 7.18358 6.26461C6.79376 6.42608 6.46058 6.69952 6.22617 7.05034C5.99176 7.40117 5.86664 7.81362 5.86664 8.23556C5.86781 8.80099 6.09295 9.34293 6.49277 9.74275C6.8926 10.1426 7.43454 10.3677 7.99997 10.3689ZM7.99997 7.04889C8.23467 7.04889 8.4641 7.11849 8.65925 7.24888C8.85439 7.37927 9.00649 7.5646 9.09631 7.78144C9.18612 7.99827 9.20962 8.23687 9.16384 8.46706C9.11805 8.69726 9.00503 8.9087 8.83907 9.07466C8.67311 9.24062 8.46167 9.35363 8.23148 9.39942C8.00129 9.44521 7.76269 9.42171 7.54585 9.33189C7.32902 9.24208 7.14369 9.08998 7.01329 8.89483C6.8829 8.69969 6.8133 8.47026 6.8133 8.23556C6.81448 7.9216 6.94002 7.62091 7.16244 7.39933C7.38485 7.17775 7.68602 7.05333 7.99997 7.05333V7.04889Z" fill="white"/>
<path d="M7.99998 10.8444C7.43942 10.8416 6.88989 11.0002 6.41702 11.3013C5.94416 11.6023 5.56794 12.0331 5.33331 12.5422L6.19554 12.9378C6.35419 12.6003 6.60561 12.315 6.92042 12.1151C7.23523 11.9153 7.60042 11.8091 7.97331 11.8091C8.34621 11.8091 8.7114 11.9153 9.02621 12.1151C9.34102 12.315 9.59244 12.6003 9.75109 12.9378L10.6666 12.5422C10.4316 12.0335 10.0553 11.603 9.58249 11.302C9.10972 11.001 8.56042 10.8422 7.99998 10.8444Z" fill="white"/>
</svg>
