<svg width="25" height="25" viewBox="0 0 25 25" fill="none" xmlns="http://www.w3.org/2000/svg">
<g clip-path="url(#clip0_1_218)">
<path d="M2.88318 19.4989C2.0478 19.4989 1.23167 19.2858 0.492023 18.8704C0.111462 18.6745 -0.0359357 18.1841 0.191411 17.8153C0.946777 16.6082 1.21954 15.1328 0.873697 13.7452C0.515228 12.3067 -0.00344883 11.0951 0.000263962 9.57225C0.013135 4.22948 4.46013 -0.101857 9.79745 0.00179174C14.9527 0.105626 19.2013 4.43919 19.2013 9.59576C19.2014 16.3303 12.1435 21.0586 5.91263 18.4579C5.0538 19.1321 3.97431 19.4989 2.88318 19.4989ZM1.86811 17.8547C3.04184 18.2192 4.36192 17.928 5.26704 17.053C5.49005 16.8373 5.82365 16.783 6.10347 16.9169C11.4379 19.4674 17.7162 15.4697 17.7161 9.59576C17.7161 5.21257 14.1504 1.57484 9.76756 1.4866C5.25083 1.39687 1.49627 5.05496 1.48538 9.57584C1.48185 11.0223 2.0462 12.1783 2.3546 13.5485C2.67954 14.9924 2.50838 16.5194 1.86811 17.8547Z" fill="#323232"/>
<path d="M22.1167 25C21.0256 25 19.9461 24.633 19.0874 23.959C15.7737 25.342 11.8321 24.7122 9.11513 22.3658C8.80474 22.0978 8.77046 21.6289 9.03846 21.3184C9.30653 21.0081 9.77539 20.9737 10.0858 21.2418C12.4955 23.3229 16.0246 23.791 18.8965 22.418C19.1762 22.2841 19.5098 22.3384 19.7329 22.5541C20.638 23.429 21.9581 23.7204 23.1318 23.3557C22.3765 21.7803 22.2719 19.9755 22.8572 18.3046C22.8625 18.2896 22.8682 18.2748 22.8744 18.26C23.3019 17.2523 23.5173 16.1813 23.5146 15.0769C23.5099 13.1296 22.8622 11.3284 21.6413 9.86771C21.3783 9.55299 21.4202 9.08475 21.7348 8.82176C22.0494 8.55871 22.5178 8.60066 22.7808 8.91532C24.2063 10.6208 24.9943 12.8077 24.9997 15.0733C25.0029 16.371 24.7511 17.6303 24.2514 18.817C23.7266 20.3363 23.968 21.9631 24.8085 23.3162C25.036 23.6851 24.8885 24.1755 24.5078 24.3716C23.7683 24.7868 22.952 24.9999 22.1167 25Z" fill="#323232"/>
<path d="M9.60075 10.8071C10.2497 10.8071 10.7757 10.2813 10.7757 9.63276C10.7757 8.98418 10.2497 8.4584 9.60075 8.4584C8.95183 8.4584 8.42578 8.98418 8.42578 9.63276C8.42578 10.2813 8.95183 10.8071 9.60075 10.8071Z" fill="#323232"/>
<path d="M5.2719 10.8071C5.92082 10.8071 6.44687 10.2813 6.44687 9.63276C6.44687 8.98418 5.92082 8.4584 5.2719 8.4584C4.62298 8.4584 4.09692 8.98418 4.09692 9.63276C4.09692 10.2813 4.62298 10.8071 5.2719 10.8071Z" fill="#323232"/>
<path d="M13.9297 10.8071C14.5786 10.8071 15.1046 10.2813 15.1046 9.63276C15.1046 8.98418 14.5786 8.4584 13.9297 8.4584C13.2808 8.4584 12.7547 8.98418 12.7547 9.63276C12.7547 10.2813 13.2808 10.8071 13.9297 10.8071Z" fill="#323232"/>
</g>
<defs>
<clipPath id="clip0_1_218">
<rect width="25" height="25" fill="white"/>
</clipPath>
</defs>
</svg>
