<svg width="25" height="25" viewBox="0 0 25 25" fill="none" xmlns="http://www.w3.org/2000/svg">
<path fill-rule="evenodd" clip-rule="evenodd" d="M12.3189 2.86459C9.24853 2.86459 6.75954 5.35359 6.75954 8.42393V10.6037C6.75954 11.3462 6.51994 12.0081 6.23459 12.5798C6.03466 12.9803 5.78427 13.3862 5.56052 13.7488C5.47642 13.8851 5.39606 14.0153 5.32358 14.1369C5.08514 14.5367 4.94794 15.0039 4.94794 15.5053C4.94794 16.8034 5.87116 17.8898 7.12077 18.063C8.75681 18.2899 10.7647 18.5125 12.3189 18.5125C13.873 18.5125 15.881 18.2899 17.517 18.063C18.7666 17.8898 19.6898 16.8034 19.6898 15.5053C19.6898 15.0039 19.5526 14.5367 19.3142 14.1369C19.2417 14.0153 19.1613 13.8851 19.0772 13.7488C18.8535 13.3862 18.603 12.9803 18.4031 12.5798C18.1178 12.0081 17.8783 11.3463 17.8783 10.6037V8.42393C17.8783 5.35359 15.3892 2.86459 12.3189 2.86459ZM5.19704 8.42393C5.19704 4.49065 8.38559 1.30209 12.3189 1.30209C16.2521 1.30209 19.4408 4.49065 19.4408 8.42393V10.6037C19.4408 11.0073 19.5704 11.4197 19.8012 11.8819C19.9679 12.2161 20.1593 12.5259 20.3679 12.864C20.4608 13.0144 20.557 13.1704 20.6562 13.3366C21.0349 13.9717 21.2523 14.7143 21.2523 15.5053C21.2523 17.5467 19.7897 19.3254 17.7316 19.6107C16.0828 19.8394 13.9863 20.075 12.3189 20.075C10.6515 20.075 8.5549 19.8394 6.90617 19.6107C4.84805 19.3254 3.38544 17.5467 3.38544 15.5053C3.38544 14.7143 3.60283 13.9717 3.98159 13.3366C4.08069 13.1704 4.17697 13.0144 4.26982 12.864C4.47849 12.5259 4.66981 12.2161 4.83659 11.8819C5.06733 11.4197 5.19704 11.0073 5.19704 10.6037V8.42393Z" fill="#323232"/>
<path fill-rule="evenodd" clip-rule="evenodd" d="M15.0158 21.0516C14.6565 20.8127 14.1716 20.9103 13.9327 21.2696C13.5845 21.7932 12.9915 22.1356 12.3188 22.1356C11.6461 22.1356 11.053 21.7932 10.7048 21.2696C10.466 20.9103 9.98102 20.8127 9.62172 21.0516C9.26242 21.2905 9.16482 21.7754 9.40371 22.1347C10.0292 23.0754 11.1011 23.6981 12.3188 23.6981C13.5365 23.6981 14.6083 23.0754 15.2339 22.1347C15.4727 21.7754 15.3751 21.2905 15.0158 21.0516Z" fill="#323232"/>
</svg>
