<svg width="30" height="30" viewBox="0 0 30 30" fill="none" xmlns="http://www.w3.org/2000/svg">
<path d="M6.99829 11.7476C8.66638 11.7476 10.0232 10.3903 10.0232 8.72223C10.0232 7.05414 8.66638 5.69733 6.99829 5.69733C5.3302 5.69733 3.97247 7.05414 3.97247 8.72223C3.97247 10.3903 5.3302 11.7476 6.99829 11.7476ZM6.99829 7.57233C7.63275 7.57233 8.14819 8.08823 8.14819 8.72223C8.14819 9.35669 7.63275 9.87259 6.99829 9.87259C6.36383 9.87259 5.84747 9.35669 5.84747 8.72223C5.84747 8.08823 6.36383 7.57233 6.99829 7.57233Z" fill="#6366F1"/>
<path d="M4.16931 20.5975H5.61218C6.13037 20.5975 6.54968 20.1778 6.54968 19.66C6.54968 19.3157 6.35513 19.0275 6.07847 18.8644C5.93914 18.7824 5.78573 18.7225 5.61218 18.7225H4.16931C3.93768 18.7225 3.75 18.5349 3.75 18.3037C3.75 17.4417 4.08783 16.6287 4.70123 16.0144C5.31464 15.4005 6.1322 15.0627 7.00195 15.0627C7.41554 15.0627 7.81408 15.1481 8.16902 15.2956C8.19832 15.3078 8.23219 15.3124 8.2608 15.3255C8.7323 15.542 9.28802 15.3328 9.50317 14.8622C9.71832 14.3912 9.51141 13.835 9.04083 13.6198C8.42194 13.3374 7.71698 13.1877 7.00195 13.1877C5.63141 13.1877 4.34326 13.7206 3.37463 14.6892C2.40784 15.6573 1.875 16.9414 1.875 18.3037C1.875 19.5685 2.90405 20.5975 4.16931 20.5975Z" fill="#6366F1"/>
<path d="M23.0017 11.7476C24.6698 11.7476 26.0275 10.3903 26.0275 8.72223C26.0275 7.05414 24.6698 5.69733 23.0017 5.69733C21.3336 5.69733 19.9768 7.05414 19.9768 8.72223C19.9768 10.3903 21.3336 11.7476 23.0017 11.7476ZM23.0017 7.57233C23.6362 7.57233 24.1525 8.08823 24.1525 8.72223C24.1525 9.35669 23.6362 9.87259 23.0017 9.87259C22.3672 9.87259 21.8518 9.35669 21.8518 8.72223C21.8518 8.08823 22.3672 7.57233 23.0017 7.57233Z" fill="#6366F1"/>
<path d="M20.9592 13.6198C20.4886 13.835 20.2817 14.3912 20.4968 14.8622C20.712 15.3328 21.265 15.5397 21.7392 15.3255C21.7678 15.3124 21.8017 15.3078 21.831 15.2956C22.1859 15.1481 22.5845 15.0627 22.9981 15.0627C23.8678 15.0627 24.6854 15.4005 25.2979 16.0139C25.9122 16.6287 26.25 17.4417 26.25 18.3037C26.25 18.5349 26.0623 18.7225 25.8307 18.7225H24.3878C24.2143 18.7225 24.0609 18.7824 23.9215 18.8645C23.6449 19.0275 23.4503 19.3157 23.4503 19.66C23.4503 20.1778 23.8696 20.5975 24.3878 20.5975H25.8307C27.096 20.5975 28.125 19.5685 28.125 18.3037C28.125 16.9414 27.5922 15.6573 26.6245 14.6887C25.6567 13.7206 24.3686 13.1877 22.9981 13.1877C22.283 13.1877 21.5781 13.3374 20.9592 13.6198Z" fill="#6366F1"/>
<path d="M15 13.4573C16.9638 13.4573 18.5614 11.8597 18.5614 9.89639C18.5614 7.93259 16.9638 6.33499 15 6.33499C13.0362 6.33499 11.4386 7.93259 11.4386 9.89639C11.4386 11.8597 13.0362 13.4573 15 13.4573ZM15 8.20999C15.9302 8.20999 16.6864 8.96667 16.6864 9.89639C16.6864 10.8261 15.9302 11.5823 15 11.5823C14.0698 11.5823 13.3136 10.8261 13.3136 9.89639C13.3136 8.96667 14.0698 8.20999 15 8.20999Z" fill="#6366F1"/>
<path d="M11.4441 24.3027H18.5559C20.0125 24.3027 21.1972 23.118 21.1972 21.6614C21.1972 18.2442 18.4167 15.4637 15 15.4637C11.5833 15.4637 8.8028 18.2442 8.8028 21.6614C8.8028 23.118 9.98749 24.3027 11.4441 24.3027ZM15 17.3387C17.3831 17.3387 19.3222 19.2778 19.3222 21.6614C19.3222 22.0839 18.9789 22.4277 18.5559 22.4277H11.4441C11.0211 22.4277 10.6778 22.0839 10.6778 21.6614C10.6778 19.2778 12.6169 17.3387 15 17.3387Z" fill="#6366F1"/>
</svg>
