<svg width="25" height="23" viewBox="0 0 25 23" fill="none" xmlns="http://www.w3.org/2000/svg">
<path d="M24.2188 11.5006H23.4375V7.59433C23.4375 7.16308 23.0875 6.81308 22.6562 6.81308H21.875V4.46933C21.875 4.03808 21.525 3.68808 21.0938 3.68808H18.4516L17.1047 0.994329C16.9109 0.606829 16.4422 0.452141 16.0562 0.644328L14.2562 1.54589L13.9797 0.994329C13.7859 0.608391 13.3172 0.452141 12.9312 0.645891L6.84688 3.68808H2.34375C1.05156 3.68808 0 4.73964 0 6.03183V20.0943C0 21.3865 1.05156 22.4381 2.34375 22.4381H22.6562C23.0875 22.4381 23.4375 22.0881 23.4375 21.6568V17.7506H24.2188C24.65 17.7506 25 17.4006 25 16.9693V12.2818C25 11.8506 24.65 11.5006 24.2188 11.5006ZM20.3125 5.25058V6.81308H20.0141L19.2328 5.25058H20.3125ZM16.0562 2.39277L18.2672 6.81308H16.8891L14.9547 2.94277L16.0562 2.39277ZM12.9312 2.39277L15.1422 6.81308H4.09062L12.9312 2.39277ZM2.34375 5.25058H3.72187L1.625 6.29902C1.59375 6.21308 1.5625 6.12558 1.5625 6.03183C1.5625 5.60058 1.9125 5.25058 2.34375 5.25058ZM21.875 20.8756H2.34375C1.9125 20.8756 1.5625 20.5256 1.5625 20.0943V8.22558C1.81875 8.31777 2.08125 8.37558 2.34375 8.37558H21.875V11.5006H18.75C17.0266 11.5006 15.625 12.9021 15.625 14.6256C15.625 16.349 17.0266 17.7506 18.75 17.7506H21.875V20.8756ZM23.4375 16.1881H18.75C17.8891 16.1881 17.1875 15.4865 17.1875 14.6256C17.1875 13.7646 17.8891 13.0631 18.75 13.0631H23.4375V16.1881Z" fill="#1EB45A"/>
</svg>
