<svg width="25" height="25" viewBox="0 0 25 25" fill="none" xmlns="http://www.w3.org/2000/svg">
<path d="M12.4986 13.8542C12.3632 13.8542 12.2278 13.8229 12.1028 13.75L2.90486 8.42708C2.54028 8.20833 2.40486 7.72916 2.62361 7.35416C2.84236 6.97916 3.32153 6.85416 3.69653 7.07291L12.4986 12.1667L21.2486 7.10416C21.6236 6.88541 22.1028 7.02083 22.3216 7.38541C22.5403 7.76041 22.4049 8.23958 22.0403 8.45833L12.9049 13.75C12.7695 13.8125 12.6341 13.8542 12.4986 13.8542Z" fill="#F14B6A"/>
<path d="M12.4986 23.2917C12.0716 23.2917 11.7174 22.9375 11.7174 22.5104V13.0625C11.7174 12.6354 12.0716 12.2812 12.4986 12.2812C12.9257 12.2812 13.2799 12.6354 13.2799 13.0625V22.5104C13.2799 22.9375 12.9257 23.2917 12.4986 23.2917Z" fill="#F14B6A"/>
<path d="M12.4986 23.6979C11.582 23.6979 10.6757 23.5 9.95695 23.1042L4.39445 20.0104C2.88403 19.1771 1.70695 17.1667 1.70695 15.4375V9.55208C1.70695 7.82291 2.88403 5.82291 4.39445 4.97916L9.95695 1.89583C11.3841 1.10416 13.6132 1.10416 15.0403 1.89583L20.6028 4.98958C22.1132 5.82291 23.2903 7.83333 23.2903 9.5625V15.4479C23.2903 17.1771 22.1132 19.1771 20.6028 20.0208L15.0403 23.1042C14.3216 23.5 13.4153 23.6979 12.4986 23.6979ZM12.4986 2.86458C11.8424 2.86458 11.1966 3 10.7174 3.26041L5.15486 6.35416C4.15486 6.90625 3.26945 8.40625 3.26945 9.55208V15.4375C3.26945 16.5833 4.15486 18.0833 5.15486 18.6458L10.7174 21.7396C11.6653 22.2708 13.332 22.2708 14.2799 21.7396L19.8424 18.6458C20.8424 18.0833 21.7278 16.5937 21.7278 15.4375V9.55208C21.7278 8.40625 20.8424 6.90625 19.8424 6.34375L14.2799 3.24999C13.8007 2.99999 13.1549 2.86458 12.4986 2.86458Z" fill="#F14B6A"/>
</svg>
