<svg width="18" height="10" viewBox="0 0 18 10" fill="none" xmlns="http://www.w3.org/2000/svg">
<path d="M17.4375 1.0625C17.4375 0.913316 17.3782 0.770242 17.2727 0.664753C17.1673 0.559263 17.0242 0.5 16.875 0.5H12.2344C12.0852 0.5 11.9421 0.559263 11.8366 0.664753C11.7311 0.770242 11.6719 0.913316 11.6719 1.0625C11.6719 1.21168 11.7311 1.35476 11.8366 1.46025C11.9421 1.56574 12.0852 1.625 12.2344 1.625H15.5053L10.8394 6.2375L6.58406 3.20563C6.47486 3.12782 6.34146 3.09158 6.2079 3.10344C6.07434 3.1153 5.9494 3.17448 5.85562 3.27031L0.722811 8.54375C0.626919 8.65191 0.576343 8.79283 0.581576 8.93728C0.58681 9.08173 0.64745 9.21862 0.750918 9.31956C0.854386 9.42049 0.992739 9.47773 1.13727 9.47938C1.28181 9.48103 1.42144 9.42698 1.52719 9.32844L6.32531 4.40094L10.5722 7.42719C10.6803 7.50419 10.8121 7.5405 10.9444 7.52969C11.0767 7.51889 11.2008 7.46166 11.295 7.36812L16.3125 2.40969V5.70312C16.3125 5.85231 16.3718 5.99538 16.4773 6.10087C16.5827 6.20636 16.7258 6.26562 16.875 6.26562C17.0242 6.26562 17.1673 6.20636 17.2727 6.10087C17.3782 5.99538 17.4375 5.85231 17.4375 5.70312V1.0625Z" fill="#CDA201"/>
</svg>
