<svg width="18" height="18" viewBox="0 0 18 18" fill="none" xmlns="http://www.w3.org/2000/svg">
<path d="M17.4375 12.9375C17.4375 13.0867 17.3782 13.2298 17.2727 13.3352C17.1673 13.4407 17.0242 13.5 16.875 13.5H12.2344C12.0852 13.5 11.9421 13.4407 11.8366 13.3352C11.7311 13.2298 11.6719 13.0867 11.6719 12.9375C11.6719 12.7883 11.7311 12.6452 11.8366 12.5398C11.9421 12.4343 12.0852 12.375 12.2344 12.375H15.5053L10.8394 7.7625L6.58406 10.7944C6.47486 10.8722 6.34146 10.9084 6.2079 10.8966C6.07434 10.8847 5.9494 10.8255 5.85562 10.7297L0.722811 5.45625C0.626919 5.34809 0.576343 5.20717 0.581576 5.06272C0.58681 4.91827 0.64745 4.78138 0.750918 4.68044C0.854386 4.57951 0.992739 4.52227 1.13727 4.52062C1.28181 4.51897 1.42144 4.57302 1.52719 4.67156L6.32531 9.59906L10.5722 6.57281C10.6803 6.49581 10.8121 6.4595 10.9444 6.47031C11.0767 6.48111 11.2008 6.53834 11.295 6.63188L16.3125 11.5903V8.29688C16.3125 8.14769 16.3718 8.00462 16.4773 7.89913C16.5827 7.79364 16.7258 7.73438 16.875 7.73438C17.0242 7.73438 17.1673 7.79364 17.2727 7.89913C17.3782 8.00462 17.4375 8.14769 17.4375 8.29688V12.9375Z" fill="#F14B6A"/>
</svg>
