<svg width="14" height="14" viewBox="0 0 14 14" fill="none" xmlns="http://www.w3.org/2000/svg">
<path d="M9.08829 7.00009C9.08829 8.15509 8.15495 9.08843 6.99995 9.08843C5.84495 9.08843 4.91162 8.15509 4.91162 7.00009C4.91162 5.84509 5.84495 4.91176 6.99995 4.91176C8.15495 4.91176 9.08829 5.84509 9.08829 7.00009Z" stroke="#757B82" stroke-width="1.2" stroke-linecap="round" stroke-linejoin="round"/>
<path d="M6.99991 11.8243C9.05908 11.8243 10.9782 10.6109 12.3141 8.51092C12.8391 7.68842 12.8391 6.30592 12.3141 5.48342C10.9782 3.38342 9.05908 2.17009 6.99991 2.17009C4.94074 2.17009 3.02158 3.38342 1.68574 5.48342C1.16074 6.30592 1.16074 7.68842 1.68574 8.51092C3.02158 10.6109 4.94074 11.8243 6.99991 11.8243Z" stroke="#757B82" stroke-width="1.2" stroke-linecap="round" stroke-linejoin="round"/>
</svg>
