<svg width="12" height="12" viewBox="0 0 12 12" fill="none" xmlns="http://www.w3.org/2000/svg">
<path d="M1.67769 7.77187L3.44722 7.92449C3.71534 7.94511 3.95457 8.18435 3.9752 8.45246L4.12782 10.222C4.23918 10.5561 4.62279 10.717 4.94452 10.5602L5.67461 10.1931C5.85198 10.1065 6.00047 9.86726 6.00047 9.66927L6.00459 7.79249C6.00047 7.65637 6.07884 7.47076 6.17371 7.37589L7.34928 6.20032C7.52252 6.02708 7.73288 6.07246 7.82775 6.29932L8.97857 9.19905C9.16006 9.65277 9.58904 9.74352 9.93552 9.39704L10.4676 8.86494C10.744 8.58858 10.8553 8.06473 10.7069 7.70175L9.39517 4.40192C9.35805 4.30705 9.38692 4.16268 9.46117 4.08843L10.6986 2.85099C11.0863 2.46326 11.2596 1.7208 11.0905 1.19695C11.0286 1.01134 10.8842 0.866971 10.6986 0.805099C10.1748 0.635983 9.42817 0.813349 9.04044 1.20108L7.803 2.43852C7.72876 2.51276 7.58439 2.54164 7.48952 2.50451L4.19381 1.19695C3.83495 1.04434 3.31111 1.15571 3.03475 1.43207L2.50265 1.96416C2.15617 2.31065 2.24691 2.73962 2.70064 2.92112L5.60036 4.07193C5.82723 4.15855 5.8726 4.37717 5.69936 4.55041L4.52379 5.72597C4.42892 5.82084 4.24331 5.89921 4.11132 5.89921L2.23454 5.90334C2.03655 5.90334 1.80143 6.04771 1.71069 6.2292L1.34358 6.95928C1.17859 7.27277 1.33533 7.6605 1.67769 7.77187Z" stroke="#5065F6" stroke-width="0.9" stroke-linecap="round" stroke-linejoin="round"/>
</svg>
