<svg width="11" height="11" viewBox="0 0 11 11" fill="none" xmlns="http://www.w3.org/2000/svg">
<path d="M8.61196 3.93737L6.54957 5.99976C6.08759 6.46174 5.81123 7.04334 5.72461 7.64968L3.24974 5.17481C3.87258 5.08819 4.44592 4.80358 4.89965 4.34985L6.96205 2.28745L8.61196 3.93737ZM10.6744 4.34985L6.54957 0.225059C6.3227 -0.0018048 5.95147 -0.00180478 5.72461 0.225059C5.49775 0.451922 5.49775 0.823153 5.72461 1.05002L6.13709 1.4625L4.07469 3.52489C3.38998 4.20961 2.28453 4.20961 1.59982 3.52489L0.774862 4.34985L3.23736 6.81235L0.350008 9.6997L0.350008 10.5247L1.17497 10.5247L4.06232 7.63731L6.54957 10.1246L7.37452 9.2996C6.68981 8.61488 6.68981 7.50944 7.37453 6.82472L9.43692 4.76233L9.8494 5.17481C10.0763 5.40167 10.4475 5.40167 10.6744 5.17481C10.9012 4.94794 10.9012 4.57671 10.6744 4.34985Z" fill="#F04B69"/>
</svg>
