<svg width="140" height="38" viewBox="0 0 140 38" fill="none" xmlns="http://www.w3.org/2000/svg">
<rect x="2.5" y="2.5" width="33" height="33" stroke="#6366F1" stroke-width="5"/>
<path d="M49.9975 28V9.81818H56.4783C57.8929 9.81818 59.0647 10.0756 59.994 10.5906C60.9232 11.1055 61.6186 11.8098 62.0803 12.7035C62.5419 13.5913 62.7727 14.5915 62.7727 15.7042C62.7727 16.8228 62.5389 17.829 62.0714 18.7227C61.6097 19.6104 60.9113 20.3147 59.9762 20.8356C59.047 21.3505 57.8781 21.608 56.4695 21.608H52.0128V19.282H56.2209C57.1146 19.282 57.8396 19.1281 58.396 18.8203C58.9523 18.5066 59.3607 18.0805 59.6211 17.5419C59.8815 17.0033 60.0117 16.3907 60.0117 15.7042C60.0117 15.0176 59.8815 14.408 59.6211 13.8754C59.3607 13.3427 58.9493 12.9254 58.3871 12.6236C57.8307 12.3217 57.0968 12.1708 56.1854 12.1708H52.7408V28H49.9975ZM68.4301 19.9034V28H65.7757V9.81818H68.3946V16.5831H68.5633C68.8829 15.8492 69.3712 15.2662 70.0281 14.8342C70.6851 14.4021 71.5433 14.1861 72.6027 14.1861C73.5378 14.1861 74.3546 14.3784 75.053 14.7631C75.7573 15.1478 76.3018 15.7219 76.6865 16.4854C77.0771 17.243 77.2725 18.19 77.2725 19.3263V28H74.618V19.646C74.618 18.6457 74.3605 17.8704 73.8456 17.32C73.3307 16.7636 72.6146 16.4854 71.6972 16.4854C71.0698 16.4854 70.5075 16.6186 70.0104 16.8849C69.5191 17.1513 69.1315 17.5419 68.8474 18.0568C68.5692 18.5658 68.4301 19.1813 68.4301 19.9034ZM84.7831 28.3018C83.919 28.3018 83.1378 28.142 82.4394 27.8224C81.741 27.4969 81.1876 27.0264 80.7792 26.4109C80.3767 25.7953 80.1755 25.0407 80.1755 24.147C80.1755 23.3776 80.3235 22.7443 80.6194 22.2472C80.9153 21.75 81.3148 21.3564 81.8179 21.0664C82.321 20.7764 82.8833 20.5574 83.5047 20.4094C84.1262 20.2615 84.7594 20.149 85.4046 20.0721C86.2213 19.9774 86.8842 19.9004 87.3932 19.8413C87.9022 19.7762 88.2721 19.6726 88.5029 19.5305C88.7338 19.3885 88.8492 19.1577 88.8492 18.8381V18.7759C88.8492 18.0006 88.6302 17.3999 88.1922 16.9737C87.7602 16.5476 87.115 16.3345 86.2568 16.3345C85.3631 16.3345 84.6588 16.5328 84.1439 16.9293C83.6349 17.32 83.2828 17.755 83.0874 18.2344L80.5928 17.6662C80.8887 16.8376 81.3208 16.1688 81.8889 15.6598C82.463 15.1449 83.123 14.772 83.8687 14.5412C84.6144 14.3045 85.3986 14.1861 86.2213 14.1861C86.7658 14.1861 87.3429 14.2512 87.9525 14.3814C88.568 14.5057 89.1421 14.7365 89.6748 15.0739C90.2134 15.4112 90.6543 15.8936 90.9976 16.521C91.3409 17.1424 91.5125 17.9503 91.5125 18.9446V28H88.9202V26.1357H88.8137C88.642 26.4789 88.3846 26.8163 88.0413 27.1477C87.698 27.4792 87.2571 27.7544 86.7185 27.9734C86.1799 28.1924 85.5348 28.3018 84.7831 28.3018ZM85.3602 26.1712C86.0941 26.1712 86.7214 26.0262 87.2423 25.7362C87.769 25.4461 88.1685 25.0674 88.4408 24.5998C88.719 24.1263 88.858 23.6203 88.858 23.0817V21.3239C88.7633 21.4186 88.5799 21.5073 88.3076 21.5902C88.0413 21.6671 87.7365 21.7352 87.3932 21.7944C87.0499 21.8477 86.7155 21.898 86.39 21.9453C86.0645 21.9867 85.7922 22.0223 85.5732 22.0518C85.0583 22.117 84.5878 22.2264 84.1617 22.3803C83.7414 22.5342 83.4041 22.7562 83.1496 23.0462C82.901 23.3303 82.7767 23.709 82.7767 24.1825C82.7767 24.8395 83.0194 25.3366 83.5047 25.674C83.99 26.0054 84.6085 26.1712 85.3602 26.1712ZM95.0481 28V14.3636H97.6138V16.5298H97.7559C98.0044 15.7959 98.4424 15.2189 99.0698 14.7987C99.7031 14.3725 100.419 14.1594 101.218 14.1594C101.384 14.1594 101.579 14.1654 101.804 14.1772C102.035 14.189 102.215 14.2038 102.346 14.2216V16.7607C102.239 16.7311 102.05 16.6985 101.778 16.663C101.505 16.6216 101.233 16.6009 100.961 16.6009C100.333 16.6009 99.7741 16.734 99.2828 17.0004C98.7975 17.2608 98.4128 17.6248 98.1287 18.0923C97.8446 18.554 97.7026 19.0807 97.7026 19.6726V28H95.0481ZM104.643 28V14.3636H107.191V16.5831H107.359C107.644 15.8314 108.108 15.2455 108.753 14.8253C109.398 14.3991 110.171 14.1861 111.07 14.1861C111.982 14.1861 112.745 14.3991 113.361 14.8253C113.982 15.2514 114.441 15.8374 114.737 16.5831H114.879C115.205 15.8551 115.722 15.2751 116.433 14.843C117.143 14.4051 117.989 14.1861 118.972 14.1861C120.209 14.1861 121.218 14.5737 121.999 15.3491C122.786 16.1244 123.18 17.2933 123.18 18.8558V28H120.525V19.1044C120.525 18.1811 120.274 17.5123 119.771 17.098C119.268 16.6837 118.667 16.4766 117.968 16.4766C117.104 16.4766 116.433 16.7429 115.953 17.2756C115.474 17.8023 115.234 18.48 115.234 19.3086V28H112.589V18.9357C112.589 18.1959 112.358 17.6011 111.896 17.1513C111.434 16.7015 110.834 16.4766 110.094 16.4766C109.591 16.4766 109.126 16.6097 108.7 16.8761C108.28 17.1365 107.939 17.5005 107.679 17.968C107.425 18.4356 107.297 18.9772 107.297 19.5927V28H104.643ZM130.706 28.3018C129.842 28.3018 129.061 28.142 128.362 27.8224C127.664 27.4969 127.11 27.0264 126.702 26.4109C126.3 25.7953 126.098 25.0407 126.098 24.147C126.098 23.3776 126.246 22.7443 126.542 22.2472C126.838 21.75 127.238 21.3564 127.741 21.0664C128.244 20.7764 128.806 20.5574 129.428 20.4094C130.049 20.2615 130.682 20.149 131.327 20.0721C132.144 19.9774 132.807 19.9004 133.316 19.8413C133.825 19.7762 134.195 19.6726 134.426 19.5305C134.657 19.3885 134.772 19.1577 134.772 18.8381V18.7759C134.772 18.0006 134.553 17.3999 134.115 16.9737C133.683 16.5476 133.038 16.3345 132.18 16.3345C131.286 16.3345 130.582 16.5328 130.067 16.9293C129.558 17.32 129.206 17.755 129.01 18.2344L126.516 17.6662C126.812 16.8376 127.244 16.1688 127.812 15.6598C128.386 15.1449 129.046 14.772 129.792 14.5412C130.537 14.3045 131.321 14.1861 132.144 14.1861C132.689 14.1861 133.266 14.2512 133.875 14.3814C134.491 14.5057 135.065 14.7365 135.598 15.0739C136.136 15.4112 136.577 15.8936 136.92 16.521C137.264 17.1424 137.435 17.9503 137.435 18.9446V28H134.843V26.1357H134.737C134.565 26.4789 134.307 26.8163 133.964 27.1477C133.621 27.4792 133.18 27.7544 132.641 27.9734C132.103 28.1924 131.458 28.3018 130.706 28.3018ZM131.283 26.1712C132.017 26.1712 132.644 26.0262 133.165 25.7362C133.692 25.4461 134.091 25.0674 134.364 24.5998C134.642 24.1263 134.781 23.6203 134.781 23.0817V21.3239C134.686 21.4186 134.503 21.5073 134.23 21.5902C133.964 21.6671 133.659 21.7352 133.316 21.7944C132.973 21.8477 132.638 21.898 132.313 21.9453C131.987 21.9867 131.715 22.0223 131.496 22.0518C130.981 22.117 130.511 22.2264 130.085 22.3803C129.664 22.5342 129.327 22.7562 129.072 23.0462C128.824 23.3303 128.7 23.709 128.7 24.1825C128.7 24.8395 128.942 25.3366 129.428 25.674C129.913 26.0054 130.531 26.1712 131.283 26.1712Z" fill="#0F1729"/>
</svg>
